<?xml version="1.0" encoding="UTF-8" standalone="no"?>
<!-- Created with Inkscape (http://www.inkscape.org/) -->

<svg
   xmlns:dc="http://purl.org/dc/elements/1.1/"
   xmlns:cc="http://creativecommons.org/ns#"
   xmlns:rdf="http://www.w3.org/1999/02/22-rdf-syntax-ns#"
   xmlns:svg="http://www.w3.org/2000/svg"
   xmlns="http://www.w3.org/2000/svg"
   xmlns:sodipodi="http://sodipodi.sourceforge.net/DTD/sodipodi-0.dtd"
   xmlns:inkscape="http://www.inkscape.org/namespaces/inkscape"
   width="700mm"
   height="300mm"
   viewBox="0 0 2480.3149 1062.9921"
   id="svg2"
   version="1.1"
   inkscape:version="0.91 r13725"
   sodipodi:docname="richie_logo1.svg">
  <defs
     id="defs4" />
  <sodipodi:namedview
     id="base"
     pagecolor="#ffffff"
     bordercolor="#666666"
     borderopacity="1.0"
     inkscape:pageopacity="0.0"
     inkscape:pageshadow="2"
     inkscape:zoom="0.1767767"
     inkscape:cx="614.11976"
     inkscape:cy="1072.5425"
     inkscape:document-units="px"
     inkscape:current-layer="layer1"
     showgrid="false"
     inkscape:window-width="1280"
     inkscape:window-height="718"
     inkscape:window-x="0"
     inkscape:window-y="0"
     inkscape:window-maximized="1"
     inkscape:snap-midpoints="false" />
  <metadata
     id="metadata7">
    <rdf:RDF>
      <cc:Work
         rdf:about="">
        <dc:format>image/svg+xml</dc:format>
        <dc:type
           rdf:resource="http://purl.org/dc/dcmitype/StillImage" />
        <dc:title></dc:title>
      </cc:Work>
    </rdf:RDF>
  </metadata>
  <g
     inkscape:label="Layer 1"
     inkscape:groupmode="layer"
     id="layer1"
     transform="translate(0,10.629921)">
    <path
       id="path5206"
       d="m 326.40655,299.9395 c -59.3202,0 -107.0762,47.75598 -107.0762,107.07617 l 0,238.39649 c 0,59.3202 47.756,107.07617 107.0762,107.07617 l 147.4824,0 c 59.3202,0 107.0762,-47.75597 107.0762,-107.07617 l 0,-238.39649 c 0,-59.32019 -47.756,-107.07617 -107.0762,-107.07617 l -147.4824,0 z m 24.6328,100.50196 99.17,0 c 17.8519,0 32.2246,14.37269 32.2246,32.22461 l 0,190.08203 c 0,17.85191 -14.3727,32.22265 -32.2246,32.22265 l -99.17,0 c -17.8519,0 -32.2226,-14.37074 -32.2226,-32.22265 l 0,-190.08203 c 0,-17.85192 14.3707,-32.22461 32.2226,-32.22461 z"
       style="opacity:1;fill:#66ffcc;fill-opacity:1;fill-rule:evenodd;stroke:#000066;stroke-width:12;stroke-linejoin:round;stroke-miterlimit:4;stroke-dasharray:none;stroke-dashoffset:0;stroke-opacity:1"
       inkscape:connector-curvature="0"
       inkscape:export-xdpi="12.284723"
       inkscape:export-ydpi="12.284723" />
    <path
       inkscape:connector-curvature="0"
       id="path5208"
       d="m 744.40495,299.9395 c -59.3202,0 -107.0762,47.75598 -107.0762,107.07617 l 0,238.39649 c 0,59.3202 47.756,107.07617 107.0762,107.07617 l 147.4824,0 c 59.3202,0 107.0762,-47.75597 107.0762,-107.07617 l 0,-25.98242 -98.5313,0 0,3.31836 c 0,17.85191 -14.3707,32.22265 -32.2226,32.22265 l -99.1699,0 c -17.8519,0 -32.2246,-14.37074 -32.2246,-32.22265 l 0,-190.08203 c 0,-17.85192 14.3727,-32.22461 32.2246,-32.22461 l 99.1699,0 c 17.8519,0 32.2226,14.37269 32.2226,32.22461 l 0,4.5664 98.5313,0 0,-30.2168 c 0,-59.32019 -47.756,-107.07617 -107.0762,-107.07617 l -147.4824,0 z"
       style="opacity:1;fill:#66ffcc;fill-opacity:1;fill-rule:evenodd;stroke:#000066;stroke-width:12;stroke-linejoin:round;stroke-miterlimit:4;stroke-dasharray:none;stroke-dashoffset:0;stroke-opacity:1" />
    <path
       inkscape:connector-curvature="0"
       id="path5210"
       d="m 1162.1354,297.87035 c -59.1735,0 -106.8113,47.75648 -106.8113,107.07734 l 0,238.39906 c 0,59.32085 47.6378,107.07733 106.8113,107.07733 59.5251,3.00075 191.3187,1.82519 253.6053,1.89456 -0.026,-24.64985 -0.1358,-60.84722 -0.098,-99.44053 l -128.9049,0 c -0.3679,0.0124 -0.7356,0.0273 -1.1066,0.0273 l -98.9246,0 c -17.8077,0 -32.1429,-14.3709 -32.1429,-32.223 l 0,-46.23292 262.4,0 0,-97.48739 -262.4,0 0,-46.36378 c 0,-17.85212 14.3352,-32.22496 32.1429,-32.22496 l 98.9246,0 c 0.069,0 0.1374,0.005 0.2065,0.006 l 0,-0.0137 129.8966,-0.25001 c 0.016,-26.01524 -0.087,-72.44385 0.049,-100.05381 -24.5799,-0.16131 -76.6794,-0.19139 -106.5307,-0.19141 l -147.1175,0 z"
       style="opacity:1;fill:#66ffcc;fill-opacity:1;fill-rule:evenodd;stroke:#000066;stroke-width:12;stroke-linejoin:round;stroke-miterlimit:4;stroke-dasharray:none;stroke-dashoffset:0;stroke-opacity:1" />
    <path
       id="path5212"
       d="m 1580.3727,299.79952 c -59.3048,0 -107.0484,47.75604 -107.0484,107.07629 l 0,238.39677 c 0,25.85403 0.072,80.50995 0.2187,106.97278 20.6506,0.13 68.7727,0.2992 99.4664,0.2246 l 0,-126.08999 c -0.143,-1.23735 -0.2245,-2.49452 -0.2245,-3.77148 l 0,-45.46294 163.5747,0 0,45.46294 c 0,0.95037 -0.049,1.88936 -0.1289,2.81836 l 0,126.95132 c 28.6061,0.093 73.7871,9.8e-4 98.7088,-0.041 0.073,-20.99203 -0.074,-79.77554 -0.074,-107.06457 l 0,-238.39677 c 0,-59.32026 -47.7436,-107.07629 -107.0484,-107.07629 l -147.4442,0 z m 24.6264,100.50208 99.1442,0 c 17.8473,0 32.2163,14.3727 32.2163,32.22464 l 0,44.21098 -163.5747,0 0,-44.21098 c 0,-17.85194 14.3669,-32.22464 32.2142,-32.22464 z"
       style="opacity:1;fill:#66ffcc;fill-opacity:1;fill-rule:evenodd;stroke:#000066;stroke-width:12;stroke-linejoin:round;stroke-miterlimit:4;stroke-dasharray:none;stroke-dashoffset:0;stroke-opacity:1"
       inkscape:connector-curvature="0" />
    <path
       sodipodi:nodetypes="ccsscccsccccccccccccscccscccsccccccccccscscc"
       inkscape:connector-curvature="0"
       id="path5214"
       d="m 1944.2658,310.28702 -15.2225,9.34999 c -21.6381,13.05069 -37.7208,44.69269 -37.7208,87.23926 l 0,238.39651 c 0,25.854 0.072,80.50986 0.2188,106.97266 20.62,0.1298 68.6063,0.29831 99.3142,0.22461 l 0,-128.27735 c -0.027,-0.5253 -0.049,-1.05179 -0.049,-1.58399 l 0,-45.4629 0.049,0 0,-100.40821 -0.049,0 0,-36.34961 7.3884,24.56836 -0.051,0.01 27.4076,91.12305 0.045,-0.01 12.4098,41.25782 0.012,0.0332 c 11.3015,37.55844 16.6553,59.45472 40.0855,101.43737 19.7653,27.72564 39.7873,53.3889 80.802,53.25333 22.7263,-0.0751 34.9966,0.55883 49.0798,-5.11343 21.366,-9.91119 19.5808,-11.44187 31.148,-21.56375 9.6751,-11.65431 12.0599,-27.07627 13.667,-39.11424 0.2145,-24.85282 0.1465,-267.67469 0.1465,-267.67469 0.014,-25.85399 -0.072,-88.50986 -0.2187,-114.97266 -20.62,-0.1298 -68.6063,-0.29831 -99.3142,-0.22461 l 0,136.27735 c 0.027,0.5253 0.049,1.05178 0.049,1.58398 l 0,45.46291 -0.049,0 0,100.40821 0.049,0 0,39.01172 -19.3043,-64.18556 -0.045,0.006 -12.4333,-41.33594 c -0.1347,-0.45649 -0.2517,-0.91158 -0.3613,-1.36719 l -38.1341,-114.14825 c 0,0 -5.2098,-14.43515 -8.2542,-20.87481 -14.8047,-31.31551 -30.4718,-62.06578 -52.1632,-72.00735 -13.5598,-6.75958 -29.7151,-10.08765 -42.7655,-8.7639 -21.948,2.22628 -21.948,2.22628 -21.948,2.22628 z"
       style="opacity:1;fill:#66ffcc;fill-opacity:1;fill-rule:evenodd;stroke:#000066;stroke-width:12;stroke-linejoin:round;stroke-miterlimit:4;stroke-dasharray:none;stroke-dashoffset:0;stroke-opacity:1" />
    <rect
       style="opacity:1;fill:#000066;fill-opacity:1;fill-rule:evenodd;stroke:#000066;stroke-width:9.53034019;stroke-linejoin:round;stroke-miterlimit:4;stroke-dasharray:none;stroke-dashoffset:0;stroke-opacity:1"
       id="rect4153"
       width="536.21027"
       height="536.21027"
       x="1312.5743"
       y="-1113.2063"
       inkscape:export-xdpi="5.2800002"
       inkscape:export-ydpi="5.2800002" />
    <path
       inkscape:export-ydpi="5.2800002"
       inkscape:export-xdpi="5.2800002"
       inkscape:connector-curvature="0"
       style="opacity:1;fill:#66ffcc;fill-opacity:1;fill-rule:evenodd;stroke:#000066;stroke-width:12;stroke-linejoin:round;stroke-miterlimit:4;stroke-dasharray:none;stroke-dashoffset:0;stroke-opacity:1"
       d="m 1503.0322,-1076.6761 c -59.3202,0 -107.0762,47.7559 -107.0762,107.07622 l 0,238.3965 c 0,59.3202 47.756,107.07617 107.0762,107.07617 l 147.4824,0 c 59.3202,0 107.0762,-47.75597 107.0762,-107.07617 l 0,-238.3965 c 0,-59.32032 -47.756,-107.07622 -107.0762,-107.07622 l -147.4824,0 z m 24.6328,100.50202 99.17,0 c 17.8519,0 32.2246,14.3727 32.2246,32.2246 l 0,190.08204 c 0,17.85191 -14.3727,32.22265 -32.2246,32.22265 l -99.17,0 c -17.8519,0 -32.2226,-14.37074 -32.2226,-32.22265 l 0,-190.08204 c 0,-17.8519 14.3707,-32.2246 32.2226,-32.2246 z"
       id="path4151" />
  </g>
</svg>
