<?xml version="1.0" encoding="UTF-8" standalone="no"?>
<!-- Created with Inkscape (http://www.inkscape.org/) -->

<svg
   xmlns:dc="http://purl.org/dc/elements/1.1/"
   xmlns:cc="http://creativecommons.org/ns#"
   xmlns:rdf="http://www.w3.org/1999/02/22-rdf-syntax-ns#"
   xmlns:svg="http://www.w3.org/2000/svg"
   xmlns="http://www.w3.org/2000/svg"
   xmlns:sodipodi="http://sodipodi.sourceforge.net/DTD/sodipodi-0.dtd"
   xmlns:inkscape="http://www.inkscape.org/namespaces/inkscape"
   width="210mm"
   height="297mm"
   viewBox="0 0 744.09448819 1052.3622047"
   id="svg2"
   version="1.1"
   inkscape:version="0.91 r13725"
   sodipodi:docname="drawing_board.svg">
  <defs
     id="defs4" />
  <sodipodi:namedview
     id="base"
     pagecolor="#ffffff"
     bordercolor="#666666"
     borderopacity="1.0"
     inkscape:pageopacity="0.0"
     inkscape:pageshadow="2"
     inkscape:zoom="0.1767767"
     inkscape:cx="362.38977"
     inkscape:cy="1525.0909"
     inkscape:document-units="px"
     inkscape:current-layer="layer1"
     showgrid="false"
     inkscape:window-width="1280"
     inkscape:window-height="718"
     inkscape:window-x="0"
     inkscape:window-y="0"
     inkscape:window-maximized="1"
     inkscape:snap-midpoints="false" />
  <metadata
     id="metadata7">
    <rdf:RDF>
      <cc:Work
         rdf:about="">
        <dc:format>image/svg+xml</dc:format>
        <dc:type
           rdf:resource="http://purl.org/dc/dcmitype/StillImage" />
        <dc:title></dc:title>
      </cc:Work>
    </rdf:RDF>
  </metadata>
  <g
     inkscape:label="Layer 1"
     inkscape:groupmode="layer"
     id="layer1">
    <path
       style="opacity:1;fill:#f6f6f6;fill-opacity:0.15357223;fill-rule:evenodd;stroke:#000000;stroke-width:4;stroke-linejoin:round;stroke-miterlimit:4;stroke-dasharray:none;stroke-dashoffset:0;stroke-opacity:1"
       d="M -2358.209 -81.029297 C -2417.5292 -81.029297 -2465.2852 -33.273324 -2465.2852 26.046875 L -2465.2852 264.44336 C -2465.2852 323.76356 -2417.5292 371.51953 -2358.209 371.51953 L -2210.7266 371.51953 C -2151.4064 371.51953 -2103.6504 323.76356 -2103.6504 264.44336 L -2103.6504 26.046875 C -2103.6504 -33.273324 -2151.4064 -81.029297 -2210.7266 -81.029297 L -2358.209 -81.029297 z M -2333.5762 19.472656 L -2234.4062 19.472656 C -2216.5543 19.472656 -2202.1816 33.845348 -2202.1816 51.697266 L -2202.1816 241.7793 C -2202.1816 259.63121 -2216.5543 274.00195 -2234.4062 274.00195 L -2333.5762 274.00195 C -2351.4281 274.00195 -2365.7988 259.63121 -2365.7988 241.7793 L -2365.7988 51.697266 C -2365.7988 33.845348 -2351.4281 19.472656 -2333.5762 19.472656 z "
       id="rect10" />
    <path
       style="opacity:1;fill:#f6f6f6;fill-opacity:0.15357223;fill-rule:evenodd;stroke:#000000;stroke-width:4;stroke-linejoin:round;stroke-miterlimit:4;stroke-dasharray:none;stroke-dashoffset:0;stroke-opacity:1"
       d="m -1898.2106,-83.029297 c -59.3202,0 -107.0762,47.755973 -107.0762,107.076172 l 0,238.396485 c 0,59.3202 47.756,107.07617 107.0762,107.07617 l 147.4824,0 c 59.3202,0 107.0762,-47.75597 107.0762,-107.07617 l 0,-25.98242 -98.5313,0 0,3.31836 c 0,17.85191 -14.3707,32.22265 -32.2226,32.22265 l -99.1699,0 c -17.8519,0 -32.2246,-14.37074 -32.2246,-32.22265 l 0,-190.082034 c 0,-17.851918 14.3727,-32.22461 32.2246,-32.22461 l 99.1699,0 c 17.8519,0 32.2226,14.372692 32.2226,32.22461 l 0,4.566406 98.5313,0 0,-30.216797 c 0,-59.320199 -47.756,-107.076172 -107.0762,-107.076172 l -147.4824,0 z"
       id="rect5111"
       inkscape:connector-curvature="0" />
    <path
       style="opacity:1;fill:#f6f6f6;fill-opacity:0.15357223;fill-rule:evenodd;stroke:#000000;stroke-width:3.99992394;stroke-linejoin:round;stroke-miterlimit:4;stroke-dasharray:none;stroke-dashoffset:0;stroke-opacity:1"
       d="m -1483.7245,933.40664 0,101.00586 0.055,0 0,75.1124 -0.055,0 0,101.0059 0.055,0 0,74.419 -0.055,0 0,101.0059 362.6466,0 0,-101.0059 -262.6055,0 0,-74.419 262.6055,0 0,-101.0059 -262.6055,0 0,-75.1124 262.6055,0 0,-101.00586 -362.6466,0 z"
       id="rect5136"
       inkscape:connector-curvature="0" />
    <path
       style="opacity:1;fill:#f6f6f6;fill-opacity:0.15357223;fill-rule:evenodd;stroke:#000000;stroke-width:4;stroke-linejoin:round;stroke-miterlimit:4;stroke-dasharray:none;stroke-dashoffset:0;stroke-opacity:1"
       d="m -1464.209,-89.0293 c -59.3202,0 -107.0762,47.75597 -107.0762,107.07618 l 0,238.39648 c 0,59.3202 47.756,107.07617 107.0762,107.07617 59.6728,3.00071 191.7933,1.82517 254.2344,1.89453 -0.026,-24.64958 -0.1362,-60.84656 -0.098,-99.43945 l -129.2246,0 c -0.3688,0.0124 -0.7374,0.0273 -1.1093,0.0273 l -99.17,0 c -17.8519,0 -32.2226,-14.37074 -32.2226,-32.22265 l 0,-46.23242 263.0508,0 0,-97.48633 -263.0508,0 0,-46.36328 c 0,-17.85192 14.3707,-32.22461 32.2226,-32.22461 l 99.17,0 c 0.069,0 0.1377,0.0049 0.207,0.0059 l 0,-0.01368 130.2187,-0.25 c 0.016,-26.01496 -0.087,-72.44307 0.049,-100.05273 -24.6409,-0.16131 -76.8696,-0.19139 -106.795,-0.19141 l -147.4824,0 z"
       id="path5153"
       inkscape:connector-curvature="0" />
    <path
       style="opacity:1;fill:#f6f6f6;fill-opacity:0.15357223;fill-rule:evenodd;stroke:#000000;stroke-width:4;stroke-linejoin:round;stroke-miterlimit:4;stroke-dasharray:none;stroke-dashoffset:0;stroke-opacity:1"
       d="M -1036.209 -87.029297 C -1095.5292 -87.029297 -1143.2852 -39.273315 -1143.2852 20.046875 L -1143.2852 258.44336 C -1143.2852 284.29736 -1143.2137 338.95322 -1143.0664 365.41602 C -1122.4105 365.54602 -1074.2759 365.71522 -1043.5742 365.64062 L -1043.5742 239.55078 C -1043.7173 238.31343 -1043.7988 237.05626 -1043.7988 235.7793 L -1043.7988 190.31641 L -880.18164 190.31641 L -880.18164 235.7793 C -880.18164 236.72967 -880.23065 237.66866 -880.31055 238.59766 L -880.31055 365.54883 C -851.69705 365.64183 -806.50427 365.54981 -781.57617 365.50781 C -781.50317 344.51581 -781.65039 285.73236 -781.65039 258.44336 L -781.65039 20.046875 C -781.65039 -39.273325 -829.40636 -87.029297 -888.72656 -87.029297 L -1036.209 -87.029297 z M -1011.5762 13.472656 L -912.40625 13.472656 C -894.55435 13.472656 -880.18164 27.845346 -880.18164 45.697266 L -880.18164 89.908203 L -1043.7988 89.908203 L -1043.7988 45.697266 C -1043.7988 27.845346 -1029.4281 13.472656 -1011.5762 13.472656 z "
       id="path5163" />
    <path
       sodipodi:nodetypes="ssscccsssssscccssss"
       inkscape:connector-curvature="0"
       id="path5178"
       d="m -818.209,502.9707 c -59.3202,0 -107.0762,47.75599 -107.0762,107.07618 l 0,238.39652 c 0,25.854 0.072,80.51 0.2193,106.9728 20.6559,0.13 68.79,0.299 99.4917,0.2244 l 0,-126.08982 c -0.1431,-1.23735 -0.2246,-2.49452 -0.2246,-3.77148 l 0,-190.08203 c 0,-17.85192 14.3707,-32.22461 32.2226,-32.22461 l 99.17,0 c 17.8519,0 32.2246,14.37269 32.2246,32.22461 l 0,190.08203 c 0,0.95037 -0.049,1.88936 -0.1289,2.81836 l 0,126.95124 c 28.6135,0.093 73.8058,0 98.7339,-0.042 0.073,-20.992 -0.074,-79.7746 -0.074,-107.0636 l 0,-238.39652 c 0,-59.3202 -47.756,-107.07618 -107.0762,-107.07618 z"
       style="opacity:1;fill:#f6f6f6;fill-opacity:0.15357223;fill-rule:evenodd;stroke:#000000;stroke-width:4;stroke-linejoin:round;stroke-miterlimit:4;stroke-dasharray:none;stroke-dashoffset:0;stroke-opacity:1" />
    <rect
       y="679.90729"
       x="-899.95483"
       height="100.40977"
       width="303.90976"
       id="rect5180"
       style="opacity:1;fill:#f6f6f6;fill-opacity:0.15357223;fill-rule:evenodd;stroke:#000000;stroke-width:4;stroke-linejoin:round;stroke-miterlimit:4;stroke-dasharray:none;stroke-dashoffset:0;stroke-opacity:1" />
    <path
       style="opacity:1;fill:#f6f6f6;fill-opacity:0.15357223;fill-rule:evenodd;stroke:#000000;stroke-width:4;stroke-linejoin:round;stroke-miterlimit:4;stroke-dasharray:none;stroke-dashoffset:0;stroke-opacity:1"
       d="m -647.4563,-78.25939 -4.616,2.27892 c -35.7811,17.29333 -60.3496,53.88508 -60.3496,96.43164 l 0,238.39649 c 0,25.854 0.072,80.50985 0.2188,106.97265 20.6204,0.1298 68.6078,0.29831 99.3164,0.22461 l 0,-128.27734 c -0.027,-0.5253 -0.049,-1.05179 -0.049,-1.58399 l 0,-45.46289 0.049,0 0,-100.4082 -0.049,0 0,-36.34961 7.3886,24.56836 -0.051,0.01 27.4082,91.12304 0.045,-0.01 12.4101,41.25781 0.012,0.0332 c 11.3017,37.55844 16.6557,59.45472 40.0864,101.43736 13.0481,18.53325 38.0204,53.3889 94.5927,52.89978 38.7357,-0.33491 72.2545,-29.87438 79.7545,-73.21604 l 0.5,-259.89649 c 0.05,-25.85395 -0.072,-88.50985 -0.2187,-114.97265 -20.6204,-0.1298 -68.6078,-0.29831 -99.3164,-0.22461 l 0,136.27734 c 0.027,0.5253 0.049,1.05178 0.049,1.58398 l 0,45.4629 -0.049,0 0,100.4082 0.049,0 0,39.01172 -19.3047,-64.18555 -0.045,0.006 -12.4336,-41.33594 c -0.1347,-0.45649 -0.2517,-0.91158 -0.3613,-1.36719 L -517.4336,16.4181 c -0.014,0.003 -0.033,0.007 -0.047,0.01 l -7.4396,-20.03125 c -15.4749,-30.98996 -34.3616,-60.65156 -56.0535,-70.59313 -13.5601,-6.75958 -13.7899,-6.6379 -26.7664,-8.55679 -16.3894,-1.84282 -25.1227,-0.41936 -39.7163,4.49405 z"
       id="path5183"
       inkscape:connector-curvature="0"
       sodipodi:nodetypes="ccsscccsccccccccccccscscccscccccccccccccccc" />
    <path
       inkscape:connector-curvature="0"
       id="path5197"
       d="m -2066.8871,877.6413 c -55.7737,3.8461 -99.5352,50.0269 -99.5352,106.8106 l 0,238.3965 c 0,25.854 0.072,80.5098 0.2188,106.9726 20.6204,0.1298 68.6078,0.2983 99.3164,0.2246 l 0,-128.2773 c -0.027,-0.5253 -0.049,-1.0518 -0.049,-1.584 l 0,-45.4629 0.049,0 0,-100.4082 -0.049,0 0,-44.2109 c 0,-0.5931 0.017,-1.1826 0.049,-1.7676 l 0,-130.6934 z"
       style="opacity:1;fill:#f6f6f6;fill-opacity:0.15357223;fill-rule:evenodd;stroke:#000000;stroke-width:4;stroke-linejoin:round;stroke-miterlimit:4;stroke-dasharray:none;stroke-dashoffset:0;stroke-opacity:1" />
    <path
       inkscape:connector-curvature="0"
       id="path5199"
       d="m -2050.1768,888.4681 c -18.0292,-6.277 -37.7968,-8.6731 -57.6426,-6.2626 l 35.6734,118.6094 c 0.1923,0.5249 0.371,1.0561 0.5329,1.5944 l 12.0668,40.1215 -0.052,0.01 27.4086,91.1222 0.046,-0.01 12.4102,41.2573 0.01,0.034 c 0.1407,0.4718 0.2618,0.9428 0.3749,1.4135 l 35.0131,116.4159 c 0.015,-0.01 0.034,-0.01 0.047,-0.01 l 6.0256,20.0311 c 15.4993,51.5324 72.5783,85.2012 130.3108,78.1895 l -35.6723,-118.6068 c -0.1922,-0.5249 -0.3708,-1.0561 -0.5329,-1.5944 l -12.068,-40.1239 0.052,-0.01 -27.4059,-91.1231 -0.046,0.01 -12.4337,-41.3366 c -0.1347,-0.4565 -0.2506,-0.9123 -0.3602,-1.3679 l -35.0154,-116.4148 c -0.014,0 -0.031,0.01 -0.045,0.01 l -6.0255,-20.0311 c -10.1716,-33.8184 -38.251,-59.9446 -72.6702,-71.9279 z"
       style="opacity:1;fill:#f6f6f6;fill-opacity:0.15357223;fill-rule:evenodd;stroke:#000000;stroke-width:3.94711137;stroke-linejoin:round;stroke-miterlimit:4;stroke-dasharray:none;stroke-dashoffset:0;stroke-opacity:1" />
    <path
       inkscape:connector-curvature="0"
       style="opacity:1;fill:#f6f6f6;fill-opacity:0.15357223;fill-rule:evenodd;stroke:#000000;stroke-width:4;stroke-linejoin:round;stroke-miterlimit:4;stroke-dasharray:none;stroke-dashoffset:0;stroke-opacity:1"
       d="m -1904.3235,1341.3774 c 55.7737,-3.8461 99.5352,-50.0269 99.5352,-106.8106 l 0,-238.3966 c 0,-25.854 -0.072,-80.5098 -0.2188,-106.9726 -20.6204,-0.1298 -68.6078,-0.2983 -99.3164,-0.2246 l 0,128.2773 c 0.027,0.5253 0.049,1.0518 0.049,1.584 l 0,45.4629 -0.049,0 0,100.4082 0.049,0 0,44.2109 c 0,0.5931 -0.018,1.1826 -0.049,1.7676 l 0,130.6935 z"
       id="path5201" />
    <path
       id="path5206"
       d="m -1048.209,-871.0293 c -59.3202,0 -107.0762,47.75598 -107.0762,107.07617 l 0,238.39649 c 0,59.3202 47.756,107.07617 107.0762,107.07617 l 147.4824,0 c 59.3202,0 107.0762,-47.75597 107.0762,-107.07617 l 0,-238.39649 c 0,-59.32019 -47.756,-107.07617 -107.0762,-107.07617 l -147.4824,0 z m 24.6328,100.50196 99.17,0 c 17.8519,0 32.2246,14.37269 32.2246,32.22461 l 0,190.08203 c 0,17.85191 -14.3727,32.22265 -32.2246,32.22265 l -99.17,0 c -17.8519,0 -32.2226,-14.37074 -32.2226,-32.22265 l 0,-190.08203 c 0,-17.85192 14.3707,-32.22461 32.2226,-32.22461 z"
       style="opacity:1;fill:#66ffcc;fill-opacity:1;fill-rule:evenodd;stroke:#000066;stroke-width:12;stroke-linejoin:round;stroke-miterlimit:4;stroke-dasharray:none;stroke-dashoffset:0;stroke-opacity:1"
       inkscape:connector-curvature="0" />
    <path
       inkscape:connector-curvature="0"
       id="path5208"
       d="m -630.2106,-871.0293 c -59.3202,0 -107.0762,47.75598 -107.0762,107.07617 l 0,238.39649 c 0,59.3202 47.756,107.07617 107.0762,107.07617 l 147.4824,0 c 59.3202,0 107.0762,-47.75597 107.0762,-107.07617 l 0,-25.98242 -98.5313,0 0,3.31836 c 0,17.85191 -14.3707,32.22265 -32.2226,32.22265 l -99.1699,0 c -17.8519,0 -32.2246,-14.37074 -32.2246,-32.22265 l 0,-190.08203 c 0,-17.85192 14.3727,-32.22461 32.2246,-32.22461 l 99.1699,0 c 17.8519,0 32.2226,14.37269 32.2226,32.22461 l 0,4.5664 98.5313,0 0,-30.2168 c 0,-59.32019 -47.756,-107.07617 -107.0762,-107.07617 l -147.4824,0 z"
       style="opacity:1;fill:#66ffcc;fill-opacity:1;fill-rule:evenodd;stroke:#000066;stroke-width:12;stroke-linejoin:round;stroke-miterlimit:4;stroke-dasharray:none;stroke-dashoffset:0;stroke-opacity:1" />
    <path
       inkscape:connector-curvature="0"
       id="path5210"
       d="m -212.48019,-873.09845 c -59.17343,0 -106.81127,47.75648 -106.81127,107.07734 l 0,238.39906 c 0,59.32085 47.63784,107.07733 106.81127,107.07733 59.52516,3.00075 191.318772,1.82519 253.605384,1.89456 -0.02594,-24.64985 -0.135863,-60.84722 -0.09776,-99.44053 l -128.904879,0 c -0.367887,0.0124 -0.735575,0.0273 -1.106555,0.0273 l -98.92463,0 c -17.80773,0 -32.14288,-14.3709 -32.14288,-32.223 l 0,-46.23292 262.399965,0 0,-97.48739 -262.399965,0 0,-46.36378 c 0,-17.85212 14.33515,-32.22496 32.14288,-32.22496 l 98.92463,0 c 0.06883,0 0.137359,0.005 0.206488,0.006 l 0,-0.0137 129.896519,-0.25001 c 0.01596,-26.01524 -0.08679,-72.44385 0.04888,-100.05381 -24.579935,-0.16131 -76.679413,-0.19139 -106.530773,-0.19141 l -147.117504,0 z"
       style="opacity:1;fill:#66ffcc;fill-opacity:1;fill-rule:evenodd;stroke:#000066;stroke-width:12;stroke-linejoin:round;stroke-miterlimit:4;stroke-dasharray:none;stroke-dashoffset:0;stroke-opacity:1" />
    <path
       id="path5212"
       d="m 205.75716,-871.16928 c -59.30481,0 -107.048418,47.75604 -107.048418,107.07629 l 0,238.39677 c 0,25.85403 0.0715,80.50995 0.21874,106.97278 20.650548,0.13 68.772658,0.2992 99.466388,0.2246 l 0,-126.08999 c -0.14306,-1.23735 -0.22454,-2.49452 -0.22454,-3.77148 l 0,-45.46294 163.57471,0 0,45.46294 c 0,0.95037 -0.049,1.88936 -0.12888,2.81836 l 0,126.95132 c 28.60608,0.093 73.78714,9.8e-4 98.70877,-0.041 0.073,-20.99203 -0.0742,-79.77554 -0.0742,-107.06457 l 0,-238.39677 c 0,-59.32026 -47.74358,-107.07629 -107.04839,-107.07629 l -147.44418,0 z m 24.62641,100.50208 99.14422,0 c 17.84727,0 32.21625,14.3727 32.21625,32.22464 l 0,44.21098 -163.57471,0 0,-44.21098 c 0,-17.85194 14.36697,-32.22464 32.21424,-32.22464 z"
       style="opacity:1;fill:#66ffcc;fill-opacity:1;fill-rule:evenodd;stroke:#000066;stroke-width:12;stroke-linejoin:round;stroke-miterlimit:4;stroke-dasharray:none;stroke-dashoffset:0;stroke-opacity:1"
       inkscape:connector-curvature="0" />
    <path
       sodipodi:nodetypes="ccsscccsccccccccccccscccscccsccccccccccscscc"
       inkscape:connector-curvature="0"
       id="path5214"
       d="m 569.65029,-860.68178 -15.22249,9.34999 c -21.63816,13.05069 -37.72082,44.69269 -37.72082,87.23926 l 0,238.39651 c 0,25.854 0.072,80.50986 0.21879,106.97266 20.61994,0.1298 68.60626,0.29831 99.31416,0.22461 l 0,-128.27735 c -0.027,-0.5253 -0.049,-1.05179 -0.049,-1.58399 l 0,-45.4629 0.049,0 0,-100.40821 -0.049,0 0,-36.34961 7.38844,24.56836 -0.051,0.01 27.40758,91.12305 0.045,-0.01 12.40982,41.25782 0.012,0.0332 c 11.30144,37.55844 16.65532,59.45472 40.0855,101.43737 19.76531,27.72564 39.78731,53.3889 80.80198,53.25333 22.72632,-0.0751 34.9966,0.55883 49.07981,-5.11343 21.36597,-9.91119 19.58084,-11.44187 31.14801,-21.56375 9.67509,-11.65431 12.05988,-27.07627 13.66701,-39.11424 0.21446,-24.85282 0.14644,-267.67469 0.14644,-267.67469 0.0141,-25.85399 -0.072,-88.50986 -0.21869,-114.97266 -20.61994,-0.1298 -68.60625,-0.29831 -99.31416,-0.22461 l 0,136.27735 c 0.027,0.5253 0.049,1.05178 0.049,1.58398 l 0,45.46291 -0.049,0 0,100.40821 0.049,0 0,39.01172 -19.30427,-64.18556 -0.045,0.006 -12.43332,-41.33594 c -0.13469,-0.45649 -0.25169,-0.91158 -0.36129,-1.36719 l -38.13416,-114.14825 c 0,0 -5.20977,-14.43515 -8.25418,-20.87481 -14.80471,-31.31551 -30.47183,-62.06578 -52.16324,-72.00735 -13.55979,-6.75958 -29.71509,-10.08765 -42.76543,-8.7639 -21.94801,2.22628 -21.94801,2.22628 -21.94801,2.22628 z"
       style="opacity:1;fill:#66ffcc;fill-opacity:1;fill-rule:evenodd;stroke:#000066;stroke-width:12;stroke-linejoin:round;stroke-miterlimit:4;stroke-dasharray:none;stroke-dashoffset:0;stroke-opacity:1" />
    <rect
       style="opacity:1;fill:#0099ff;fill-opacity:1;fill-rule:evenodd;stroke:none;stroke-width:10;stroke-linejoin:round;stroke-miterlimit:4;stroke-dasharray:none;stroke-dashoffset:0;stroke-opacity:1"
       id="rect5216"
       width="2093.2026"
       height="120.08327"
       x="-1230.2135"
       y="-1196.7512" />
    <rect
       y="-2285.1819"
       x="-1414.2135"
       height="404.46509"
       width="1620.6887"
       id="rect5218"
       style="opacity:1;fill:#0099ff;fill-opacity:1;fill-rule:evenodd;stroke:none;stroke-width:10;stroke-linejoin:round;stroke-miterlimit:4;stroke-dasharray:none;stroke-dashoffset:0;stroke-opacity:1" />
  </g>
</svg>
